<svg xmlns="http://www.w3.org/2000/svg" xmlns:xlink="http://www.w3.org/1999/xlink" viewBox="0 0 178.15 278.42"><defs><style>.cls-1{isolation:isolate;}.cls-2{fill:url(#linear-gradient);}.cls-10,.cls-13,.cls-3,.cls-4,.cls-5,.cls-6{opacity:0.3;}.cls-11,.cls-12,.cls-14,.cls-15,.cls-3,.cls-4{mix-blend-mode:multiply;}.cls-3{fill:url(#Fade_to_Black);}.cls-4{fill:url(#Fade_to_Black-2);}.cls-5{fill:url(#linear-gradient-2);}.cls-6{fill:url(#linear-gradient-3);}.cls-7{opacity:0.2;fill:url(#linear-gradient-4);}.cls-8{fill:url(#linear-gradient-5);}.cls-9{fill:url(#linear-gradient-6);}.cls-10{fill:url(#linear-gradient-7);}.cls-11,.cls-12,.cls-14,.cls-15{opacity:0.1;}.cls-11{fill:url(#linear-gradient-8);}.cls-12{fill:url(#linear-gradient-9);}.cls-13{fill:url(#linear-gradient-10);}.cls-14{fill:url(#linear-gradient-11);}.cls-15{fill:url(#linear-gradient-12);}</style><linearGradient id="linear-gradient" x1="4.94" y1="139.21" x2="172.81" y2="139.21" gradientUnits="userSpaceOnUse"><stop offset="0" stop-color="#fdb913"/><stop offset="0.1" stop-color="#ffcb05"/><stop offset="0.21" stop-color="#fcb711"/><stop offset="0.31" stop-color="#fbaa18"/><stop offset="0.41" stop-color="#faa61a"/><stop offset="0.5" stop-color="#fbaf15"/><stop offset="0.64" stop-color="#fec707"/><stop offset="0.7" stop-color="#ffd400"/><stop offset="0.83" stop-color="#fecb06"/><stop offset="1" stop-color="#fdb913"/></linearGradient><linearGradient id="Fade_to_Black" x1="100.03" y1="284.71" x2="100.03" y2="242.46" gradientTransform="matrix(1, 0, 0, -1, -11, 288.82)" gradientUnits="userSpaceOnUse"><stop offset="0" stop-color="#231f20"/><stop offset="0.06" stop-color="#231f20" stop-opacity="0.86"/><stop offset="0.33" stop-color="#231f20" stop-opacity="0.38"/><stop offset="0.63" stop-color="#231f20" stop-opacity="0.09"/><stop offset="1" stop-color="#231f20" stop-opacity="0"/></linearGradient><linearGradient id="Fade_to_Black-2" x1="89.03" y1="274.32" x2="89.03" y2="232.07" gradientTransform="matrix(1, 0, 0, 1, 0, 0)" xlink:href="#Fade_to_Black"/><linearGradient id="linear-gradient-2" x1="31.95" y1="284.75" x2="31.95" y2="14.54" gradientUnits="userSpaceOnUse"><stop offset="0" stop-color="#fff"/><stop offset="0.51" stop-color="#fff" stop-opacity="0.2"/><stop offset="1" stop-color="#fff"/></linearGradient><linearGradient id="linear-gradient-3" x1="167.46" x2="167.46" y2="14.54" xlink:href="#linear-gradient-2"/><linearGradient id="linear-gradient-4" x1="63.79" y1="284.75" x2="63.79" y2="14.54" gradientUnits="userSpaceOnUse"><stop offset="0" stop-color="#fff"/><stop offset="0.51" stop-color="#fff" stop-opacity="0"/><stop offset="1" stop-color="#fff"/></linearGradient><linearGradient id="linear-gradient-5" x1="11" y1="14.54" x2="189.15" y2="14.54" gradientUnits="userSpaceOnUse"><stop offset="0" stop-color="#ccc"/><stop offset="0.02" stop-color="#d1d1d1"/><stop offset="0.13" stop-color="#e9e9e9"/><stop offset="0.2" stop-color="#f2f2f2"/><stop offset="0.36" stop-color="#e2e2e2"/><stop offset="0.5" stop-color="#d9d9d9"/><stop offset="0.75" stop-color="#f7f7f7"/><stop offset="0.81" stop-color="#eee"/><stop offset="0.92" stop-color="#d6d6d6"/><stop offset="1" stop-color="#bfbfbf"/></linearGradient><linearGradient id="linear-gradient-6" y1="284.75" x2="189.15" y2="284.75" xlink:href="#linear-gradient-5"/><linearGradient id="linear-gradient-7" x1="100.08" y1="205.59" x2="100.08" y2="200.26" gradientUnits="userSpaceOnUse"><stop offset="0" stop-color="#fff"/><stop offset="0.12" stop-color="#fff" stop-opacity="0.98"/><stop offset="0.25" stop-color="#fff" stop-opacity="0.93"/><stop offset="0.37" stop-color="#fff" stop-opacity="0.85"/><stop offset="0.5" stop-color="#fff" stop-opacity="0.74"/><stop offset="0.63" stop-color="#fff" stop-opacity="0.59"/><stop offset="0.76" stop-color="#fff" stop-opacity="0.41"/><stop offset="0.89" stop-color="#fff" stop-opacity="0.2"/><stop offset="1" stop-color="#fff" stop-opacity="0"/></linearGradient><linearGradient id="linear-gradient-8" x1="100.08" y1="189.13" x2="100.08" y2="183.8" gradientUnits="userSpaceOnUse"><stop offset="0" stop-color="#231f20"/><stop offset="1" stop-color="#231f20" stop-opacity="0"/></linearGradient><linearGradient id="linear-gradient-9" x1="100.08" y1="200.26" x2="100.08" y2="194.69" xlink:href="#linear-gradient-8"/><linearGradient id="linear-gradient-10" x1="100.08" y1="115.57" x2="100.08" y2="110.24" xlink:href="#linear-gradient-7"/><linearGradient id="linear-gradient-11" x1="100.08" y1="99.11" x2="100.08" y2="93.78" xlink:href="#linear-gradient-8"/><linearGradient id="linear-gradient-12" x1="100.08" y1="110.24" x2="100.08" y2="104.67" xlink:href="#linear-gradient-8"/></defs><title>keg</title><g class="cls-1"><g id="Layer_1" data-name="Layer 1"><rect class="cls-2" x="4.94" y="4.11" width="167.88" height="270.21"/><rect class="cls-3" x="1.59" y="4.11" width="174.88" height="42.25"/><rect class="cls-4" x="1.59" y="232.07" width="174.88" height="42.25"/><path class="cls-5" d="M33,284.75V205.59c0-2.71,3.1-3.62,3.1-5.33s-3-2.37-3-5.56,3-3.85,3-5.56S33,186.51,33,183.8V115.53c0-2.71,3.1-3.62,3.1-5.33s-3-2.37-3-5.56,3-3.85,3-5.56S33,96.45,33,93.74V14.54H27.79v79.2c0,2.71,3.1,3.62,3.1,5.33s-3,2.37-3,5.56,3,3.85,3,5.56-3.1,2.62-3.1,5.33V183.8c0,2.71,3.1,3.62,3.1,5.33s-3,2.37-3,5.56,3,3.85,3,5.56-3.1,2.62-3.1,5.33v79.16Z" transform="translate(-11 -10.43)"/><path class="cls-6" d="M166.4,284.75V205.59c0-2.71-3.1-3.62-3.1-5.33s3-2.37,3-5.56-3-3.85-3-5.56,3.1-2.62,3.1-5.33V115.53c0-2.71-3.1-3.62-3.1-5.33s3-2.37,3-5.56-3-3.85-3-5.56,3.1-2.62,3.1-5.33V14.54h5.22v79.2c0,2.71-3.1,3.62-3.1,5.33s3,2.37,3,5.56-3,3.85-3,5.56,3.1,2.62,3.1,5.33V183.8c0,2.71-3.1,3.62-3.1,5.33s3,2.37,3,5.56-3,3.85-3,5.56,3.1,2.62,3.1,5.33v79.16Z" transform="translate(-11 -10.43)"/><path class="cls-7" d="M71.22,284.75V205.59c0-2.71,3.1-3.62,3.1-5.33s-3-2.37-3-5.56,3-3.85,3-5.56-3.1-2.62-3.1-5.33V115.53c0-2.71,3.1-3.62,3.1-5.33s-3-2.37-3-5.56,3-3.85,3-5.56-3.1-2.62-3.1-5.33V14.54h-18v79.2c0,2.71,3.1,3.62,3.1,5.33s-3,2.37-3,5.56,3,3.85,3,5.56-3.1,2.62-3.1,5.33V183.8c0,2.71,3.1,3.62,3.1,5.33s-3,2.37-3,5.56,3,3.85,3,5.56-3.1,2.62-3.1,5.33v79.16Z" transform="translate(-11 -10.43)"/><path class="cls-8" d="M185,18.65a4.11,4.11,0,1,0,0-8.22H15.11a4.11,4.11,0,1,0,0,8.22Z" transform="translate(-11 -10.43)"/><path class="cls-9" d="M185,288.86a4.11,4.11,0,0,0,0-8.22H15.11a4.11,4.11,0,1,0,0,8.22Z" transform="translate(-11 -10.43)"/><path class="cls-10" d="M12.59,205.59c0-2.71,3.1-3.62,3.1-5.33H184.46c0,1.71,3.1,2.62,3.1,5.33Z" transform="translate(-11 -10.43)"/><path class="cls-11" d="M15.7,189.13c0-1.71-3.1-2.62-3.1-5.33h175c0,2.71-3.1,3.62-3.1,5.33Z" transform="translate(-11 -10.43)"/><path class="cls-12" d="M15.7,200.26c0-1.71-3-2.37-3-5.56H187.47c0,3.2-3,3.85-3,5.56Z" transform="translate(-11 -10.43)"/><path class="cls-13" d="M12.59,115.57c0-2.71,3.1-3.62,3.1-5.33H184.46c0,1.71,3.1,2.62,3.1,5.33Z" transform="translate(-11 -10.43)"/><path class="cls-14" d="M15.7,99.11c0-1.71-3.1-2.62-3.1-5.33h175c0,2.71-3.1,3.62-3.1,5.33Z" transform="translate(-11 -10.43)"/><path class="cls-15" d="M15.7,110.24c0-1.71-3-2.37-3-5.56H187.47c0,3.19-3,3.85-3,5.56Z" transform="translate(-11 -10.43)"/></g></g></svg>